<svg xmlns="http://www.w3.org/2000/svg" width="69.23" height="80" viewBox="0 0 69.23 80">
  <g id="Group_5145" data-name="Group 5145" transform="translate(-14084 5675)">
    <path id="Union_22" data-name="Union 22" d="M23.077,73.269,34.615,66.6l11.538,6.667L34.615,79.935ZM34.615,66.6l11.538-6.667,11.538-6.667L69.23,59.935,57.692,66.6,46.153,73.269ZM23.077,59.935V73.269L11.538,66.6,0,59.935l11.538-6.667,11.538,6.667L34.615,66.6,23.077,73.269Zm34.615-6.667L69.23,46.6,57.692,53.269V39.936L46.153,33.269,34.615,26.6l11.538-6.667L57.692,26.6,46.153,33.269,57.692,26.6,69.23,33.269,57.692,39.936,69.23,33.269V59.935ZM0,46.6V33.269l11.538,6.667L23.077,46.6,11.538,53.269v0L0,46.6l11.538,6.667L0,59.935Zm34.615-6.667L46.153,46.6,34.615,53.269ZM23.077,46.6,11.538,39.936,0,33.269,11.538,26.6l11.538,6.667L11.538,26.6l11.538-6.667L11.538,26.6V13.269L23.077,6.6v.064L34.615,0V13.333L23.077,6.667l11.538,6.667L23.077,20V33.269l11.538,6.667L23.077,46.6l11.538-6.667V53.269Zm34.615-20L69.23,19.936V33.269ZM0,19.936,11.538,26.6,0,33.269Zm57.692-6.667L69.23,19.936,57.692,26.6ZM46.153,19.936l11.538-6.667V26.6ZM0,19.936l11.538-6.667V26.6ZM34.615,0,46.153,6.667,34.615,13.333Z" transform="translate(14084 -5674.936)" fill="#2a92dc"/>
    <path id="Union_23" data-name="Union 23" d="M23.077,53.333,34.615,60,23.077,66.666ZM11.538,60,0,53.333l11.538-6.667,11.538,6.667L11.538,60l11.538-6.667V66.666ZM34.615,46.666l11.538,6.667L34.615,60ZM23.077,53.333l11.538-6.667V60Zm11.538-6.667L46.153,40V53.333Zm0-13.333L46.153,40,34.615,46.666ZM23.077,40l11.538-6.667V46.666Zm0-13.269V40L11.538,33.333V20l.055.032L23.077,13.4l11.538,6.667L23.132,26.7l11.483,6.635L23.077,40Zm0-13.333L34.615,6.731V20.064ZM34.615,6.667,46.153,0V13.333L34.615,20Z" transform="translate(14095.539 -5675)" fill="#d4dfff"/>
  </g>
</svg>